<?xml version="1.0" encoding="UTF-8"?>
<svg id="image" xmlns="http://www.w3.org/2000/svg" viewBox="0 0 464.26 87.24">
  <path d="M152.82,75.11c-.01-2.51-.16-5.02,0-7.52.47-7.68.46-15.45,1.75-23,1.95-11.38,4.8-22.62,7.36-33.89.44-1.93,1.3-3.77,2.07-5.61.87-2.08,5.33-2.9,8.43-1.76,2.74,1.01,2.02,3.21,1.68,5.13-.81,4.53-1.83,9.03-2.74,13.54-.95,4.69-2,9.36-2.77,14.08-1.92,11.67-3.62,23.37-5.61,35.03-.7,4.09-1.54,8.26-3.12,12.06-1.96,4.69-8.87,5.45-13.29,1.69-4.05-3.44-7.99-5.29-16.84-19.78-3.05-5-6.85-11.36-11.1-18.85-.17.61-.4,1.56-.54,2.73-.39,3.27.24,5.8.44,6.67.68,3,.55,6.34.29,13-.16,4.21-.88,8.65-2.51,13.57-.54,1.64-1.99,3.03-3.26,4.29-.17.17-2.38-.99-2.54-1.78-.76-3.7-1.2-7.48-1.62-11.25-.24-2.14-.29-4.31-.29-6.47.03-12.2.06-24.41.26-36.61.02-1.31.88-3.27,1.87-3.72.9-.41,2.57.7,3.79,1.34,5.7,3.01,8.18,8.93,11.55,13.94,5.6,8.32,10.57,17.09,17.76,24.2,2.13,2.11,3.8,4.71,5.73,7.04.71.85,1.57,1.56,2.36,2.34.31-.14.62-.28.92-.41Z"/>
  <path d="M30.96,26.72c4.47,10.97,5.51,22.13,6.53,33.34.62,6.87,2.01,13.65,2.6,20.51.38,4.35-1.16,5.53-5.96,5.77-3.29.17-3.25-2.65-3.56-5.17-1.06-8.71-1.93-17.45-3.26-26.11-1.3-8.44-3.09-16.78-4.62-25.18-.72-3.96-3.36-2.58-5.32-2.3-4.12.57-8.19,1.89-12.31,2.16-1.64.1-3.37-1.78-5.06-2.76,1.39-1.87,2.49-4.75,4.24-5.4,3.83-1.42,7.97-1.89,12.01-2.38,2.73-.33,4.01-1.43,3.52-4.69-.51-3.43-.89-6.89-1.32-10.31,5.63-1.18,8.04.57,9.07,7.36.66,4.32,2.07,5.98,6.03,5.4,6.55-.97,13.15-1.41,19.72-2.2,2.27-.28,4.57-.15,5.2,2.52.29,1.23-.95,3.65-2.09,4.46-1.89,1.34-4.22,2.31-6.44,2.55-4.87.54-9.8.44-14.69.8-1.27.09-2.49.92-4.3,1.63Z"/>
  <path d="M173.72,72.18c1.95-4.06,3.88-8.7,6.32-13.05,4.95-8.79,10.06-17.49,15.36-26.08,1.28-2.07,3.28-3.93,5.35-5.22,3.64-2.26,7.25-1.07,9.55,2.81,1.59,2.68,2.28,6.76,4.56,8,6.48,3.53,5.13,11.1,9,15.9,2.86,3.54,4.93,7.85,6.71,12.1.56,1.34-.94,3.59-1.5,5.43-1.37-.7-3.29-1.04-4.02-2.18-3.19-4.96-5.97-10.19-9.02-15.25-1.36-2.26-3.07-3.56-6.12-2.33-2.58,1.04-5.69.78-8.2,1.92-5.91,2.68-5.45,9.51-8.28,14.24-1.89,3.16-2.91,6.9-5.03,9.85-1.86,2.59-4.98,4.57-8.24,2.73-3.15-1.77-6.84-3.58-6.45-8.88ZM210.5,44.64c-1.68-2.23-2.7-3.6-4.12-5.48-1.24,2.17-2.28,3.98-3.9,6.82,3.22-.54,5.09-.85,8.03-1.34Z"/>
  <path d="M88.45,39.01c-.02-3.07.79-5.25,1.94-5.48.88-.18,1.81.82,2.34,1.39,1.85,1.99,2.28,4.46,2.36,4.97,4.6,26.94-7.98,34.42-7.98,34.42-4.02,4.73-12.84,4.23-18.08.6-12.6-8.72-13.75-22.61-16.2-36-.17-.95.74-2.6,1.6-3.12.72-.43,2.69-.06,3.09.61,2.5,4.18,5.24,8.34,6.91,12.9,2.5,6.81,6.01,12.3,12.57,15.41,1.41.67,3.05,1.21,4.93.81,1.83-.39,3.01-1.56,3.6-2.16,4.29-4.29,3.64-14.36,3.58-15.24-.22-3.03-.44-6.07-.66-9.1Z"/>
  <path d="M443.87,28.21c-2.02.29-4.17-.22-6.21-.98-2.53-.95-5.48,1.05-6.15,3.49-.77,2.8.95,5.2,3.49,6.15,3.77,1.41,7.59,1.54,11.53.98,2.68-.38,4.14-3.78,3.49-6.15-.79-2.88-3.47-3.88-6.15-3.49h0Z"/>
  <g>
    <path d="M432.73,27.14c-31.52-.15-63.08-.29-94.56,1.55-15.08.88-30.12,2.23-45.09,4.22-12.16,1.61-25.85,3.05-32.89,14.55-5.95,9.73-3.61,22.25,6.44,28.12,9.49,5.55,21.98,4.69,32.51,4,27.3-1.79,53.48-10.41,78.11-21.98,28.56-13.42,55.06-30.78,81.3-48.2l-7.52-4.32c.73,11.1,1.46,22.2,2.18,33.31,2.11-1.61,4.22-3.21,6.33-4.82-13.23-2.85-26.46-5.7-39.69-8.54-6.28-1.35-8.96,8.29-2.66,9.64,13.23,2.85,26.46,5.7,39.69,8.54,2.97.64,6.55-1.4,6.33-4.82-.73-11.1-1.46-22.2-2.18-33.31-.23-3.54-4.15-6.55-7.52-4.32-40.79,27.07-83.48,55.57-132.16,65.73-9.2,1.92-61.64,11.36-53.88-11.16,4.11-11.94,21.2-11.92,31.49-13.18,13.68-1.67,27.43-2.81,41.19-3.58,30.83-1.72,61.73-1.58,92.6-1.44,6.44.03,6.44-9.97,0-10h0Z"/>
    <path d="M280.79,35.9c-11.67.61-19.03,13.46-15.11,24.18,2.05,5.6,6.71,9.66,11.9,12.33,5.9,3.04,13.05,6.03,19.77,5.19,6.27-.79,6.43-10.72,0-10s-13.86,1.18-19.63-2.53c-4.62-2.97-7.85-8.67-6.94-14.24l-9.14,1.19c1.84,3.32-1.1,8.42-1.3,11.96s.46,7.07,3.06,9.51c4.72,4.43,12.21,2.75,14.06-3.49.68-2.3-.51-4.34-2.3-5.65-5.14-3.77-3.41-10.95.42-14.91,4.43-4.57,11.42-5.41,17.39-6.35,6.34-1,3.65-10.64-2.66-9.64-10.23,1.61-20.78,4.67-25.93,14.54-4.64,8.9-2.33,19.1,5.72,24.99l-2.3-5.65c2.11-.52,2.98-1.75,2.6-3.69.23-1.1.49-2.19.78-3.27.31-1.38.62-2.75.79-4.16.38-3.32-.07-6.29-1.71-9.24-1.94-3.5-8.43-3.15-9.14,1.19-1.42,8.71,1.54,17.35,8.32,23.15,7.77,6.64,18.14,7.37,27.89,6.28v-10c-6.2.78-16.08-2.94-20.36-7.81-3.55-4.04-3.07-13.54,3.8-13.89,6.4-.33,6.44-10.34,0-10h0Z"/>
    <path d="M298.1,78.47c55.96-11.26,109.39-33.34,157.42-64.11-2.45-1.88-4.9-3.76-7.34-5.65-1.44,10.33.04,20.26,5.03,29.49,3.06,5.66,11.7.62,8.63-5.05-3.6-6.66-5.07-14.25-4.02-21.78.55-3.94-3.27-8.26-7.34-5.65-47.38,30.35-99.84,52-155.03,63.1-6.3,1.27-3.64,10.91,2.66,9.64h0Z"/>
    <path d="M272.5,55.4c-3.76-11.6,19.02-10.74,25.4-11.3,11.69-1.02,23.41-1.78,35.13-2.29,23.45-1.02,46.94-1,70.39,0,6.43.27,6.42-9.73,0-10-28.01-1.18-56.07-.97-84.06.72-13.17.79-26.65,1.38-39.69,3.46-10.63,1.69-20.6,10.4-16.81,22.09,1.98,6.1,11.63,3.49,9.64-2.66h0Z"/>
    <path d="M410.49,38.09c11.5.41,22.27,3.11,32.91,7.39,7.2,2.9,15.02,3.9,19.96-3.21,3.68-5.3-4.98-10.3-8.63-5.05-1.32,1.9-5.82-.26-7.52-.91-3.9-1.49-7.68-3.1-11.7-4.29-8.13-2.4-16.56-3.64-25.03-3.94-6.44-.23-6.43,9.77,0,10h0Z"/>
    <path d="M288.18,57.29c6.43,0,6.45-10,0-10s-6.45,10,0,10h0Z"/>
  </g>
</svg>