<?xml version="1.0" encoding="UTF-8"?>
<svg id="Layer_1" data-name="Layer 1" xmlns="http://www.w3.org/2000/svg" viewBox="0 0 465.06 345.26">
  <path d="M318.07,210.79c.03-7.3-.26-14.61.14-21.89,1.23-22.36,1.35-44.99,4.43-66.99,4.65-33.18,11.35-65.93,17.4-98.81,1.03-5.63,3.03-11.01,4.82-16.38,2.02-6.07,12.17-8.54,19.19-5.27,6.19,2.89,4.52,9.31,3.7,14.9-1.94,13.21-4.34,26.32-6.5,39.48-2.24,13.67-4.72,27.29-6.58,41.04-4.6,34-8.69,68.1-13.45,102.07-1.67,11.91-3.66,24.09-7.33,35.16-4.54,13.69-20.25,16.04-30.22,5.18-9.12-9.93-18.04-15.26-37.84-57.29-6.83-14.49-15.32-32.94-24.83-54.68-.4,1.78-.94,4.54-1.28,7.96-.94,9.54.43,16.89.85,19.41,1.48,8.73,1.12,18.44.41,37.85-.45,12.26-2.17,25.19-5.97,39.57-1.26,4.78-4.59,8.87-7.49,12.56-.38.49-5.38-2.83-5.74-5.13-1.65-10.76-2.58-21.75-3.46-32.71-.5-6.22-.58-12.54-.52-18.82.32-35.53.62-71.06,1.32-106.59.07-3.81,2.06-9.54,4.31-10.88,2.05-1.22,5.82,1.98,8.58,3.84,12.88,8.67,18.39,25.84,25.94,40.36,12.55,24.13,23.65,49.56,39.85,70.13,4.8,6.1,8.53,13.64,12.87,20.38,1.59,2.46,3.53,4.52,5.32,6.76.7-.41,1.4-.82,2.11-1.22Z"/>
  <path d="M73.05,115.55c10.55,26.09,13.01,52.65,15.41,79.32,1.47,16.34,4.74,32.47,6.14,48.81.89,10.35-2.74,13.15-14.06,13.74-7.76.41-7.67-6.29-8.4-12.29-2.5-20.72-4.56-41.53-7.7-62.12-3.06-20.08-7.29-39.93-10.91-59.91-1.71-9.42-7.93-6.13-12.54-5.48-9.73,1.36-19.32,4.5-29.06,5.13-3.86.25-7.95-4.23-11.94-6.56,3.29-4.44,5.88-11.3,10-12.84,9.04-3.37,18.8-4.49,28.35-5.66,6.44-.79,9.47-3.41,8.32-11.17-1.21-8.16-2.1-16.38-3.12-24.53,13.28-2.8,18.97,1.35,21.41,17.51,1.55,10.27,4.89,14.24,14.22,12.85,15.45-2.3,31.03-3.35,46.53-5.25,5.36-.66,10.78-.35,12.28,5.99.69,2.94-2.24,8.69-4.93,10.6-4.47,3.19-9.96,5.49-15.2,6.08-11.5,1.28-23.12,1.04-34.66,1.9-2.99.22-5.89,2.2-10.14,3.89Z"/>
  <path d="M365.42,201.91c3.01-7.96,5.92-17.03,9.77-25.59,7.79-17.31,15.89-34.45,24.3-51.39,2.03-4.09,5.37-7.84,8.87-10.49,6.16-4.67,12.63-2.71,17.08,4.5,3.07,4.98,4.7,12.74,8.83,14.91,11.75,6.16,10.16,20.8,17.45,29.63,5.38,6.52,9.47,14.59,13.04,22.57,1.12,2.51-1.28,6.97-2.07,10.54-2.48-1.22-5.88-1.69-7.28-3.8-6.11-9.21-11.53-18.98-17.42-28.38-2.63-4.2-5.76-6.54-11-3.91-4.43,2.23-9.91,2.02-14.22,4.44-10.11,5.69-8.6,18.72-13.09,28.05-3,6.23-4.4,13.49-7.83,19.35-3.01,5.14-8.28,9.21-14.2,6-5.72-3.11-12.38-6.23-12.24-16.42ZM427.22,145.73c-3.18-4.13-5.12-6.64-7.81-10.12-1.96,4.28-3.59,7.83-6.16,13.43,5.6-1.33,8.86-2.1,13.97-3.31Z"/>
  <path d="M177.93,159.6c-.04-6.25,1.47-10.7,3.58-11.18,1.63-.37,3.34,1.66,4.33,2.83,3.43,4.06,4.21,9.09,4.37,10.13,8.5,54.91-14.75,70.15-14.75,70.15-7.43,9.64-23.74,8.62-33.43,1.23-23.3-17.77-25.42-46.08-29.95-73.37-.32-1.94,1.37-5.31,2.96-6.36,1.33-.88,4.97-.13,5.71,1.24,4.63,8.52,9.69,17,12.78,26.3,4.62,13.88,11.11,25.06,23.25,31.4,2.61,1.36,5.63,2.47,9.11,1.65,3.39-.8,5.56-3.18,6.66-4.4,7.93-8.73,6.73-29.27,6.61-31.07-.41-6.18-.82-12.36-1.22-18.55Z"/>
  <path d="M418.76,283.75c-4.66.53-8.97.07-13.39-1.5-6.08-2.15-8.69,7.51-2.66,9.64,5.14,1.82,10.62,2.48,16.04,1.85,2.68-.31,5-2.08,5-5,0-2.46-2.3-5.31-5-5h0Z"/>
  <g>
    <path d="M382.78,273.95c-48.78-.89-97.6-1.77-146.38-.04-24.03.85-48.04,2.35-71.97,4.79-19.1,1.95-43.55,2.07-56.48,18.69-10.84,13.94-7.85,33.11,8.18,41.39,16.15,8.34,37.14,6.69,54.65,5.56,42.2-2.72,83.04-14.85,121.81-31.29,45.63-19.35,88.47-44.49,130.96-69.83l-7.52-4.32c.89,16.67,1.78,33.33,2.67,50,2.11-1.61,4.22-3.21,6.33-4.82-21.28-4.57-42.57-9.14-63.85-13.7-6.28-1.35-8.96,8.29-2.66,9.64,21.28,4.57,42.57,9.14,63.85,13.7,3,.64,6.51-1.4,6.33-4.82-.89-16.67-1.78-33.33-2.67-50-.2-3.7-4.12-6.35-7.52-4.32-68.51,40.86-139.99,83.31-219.86,96.55-19.29,3.2-39.18,4.66-58.72,3.42-13.18-.83-33.95-7.18-27.66-24.72,6.99-19.53,34.23-19.29,51.18-21.03,22.28-2.29,44.64-3.77,67.02-4.66,50.74-2.03,101.54-1.11,152.3-.19,6.44.12,6.44-9.88,0-10h0Z"/>
    <path d="M137.3,283.67c-17.35.22-28.4,20.03-20.84,35.23,3.78,7.61,11.3,12.57,18.84,15.94,9.23,4.12,19.03,7.94,29.26,6.57,5.53-.74,4.28-10.35-1.33-9.82-11,1.03-23,1.3-32.86-4.46-8.35-4.88-14.46-14.73-12.39-24.56l-9.14,1.19c3.04,4.87-.62,11.16-1.58,16.19s-1.02,10.6,2.44,14.55c5.29,6.05,16.32,5.44,18.57-3.05.6-2.26-.43-4.39-2.3-5.65-9.14-6.14-7.48-18-.56-25.11,7.61-7.81,19.19-9.38,29.5-10.73,6.29-.82,6.37-10.84,0-10-15.12,1.98-30.87,4.82-40.25,18.14-8.45,12-6.03,28.09,6.26,36.34l-2.3-5.65c.77-.25.76-.31-.02-.18l-.68-.17c-.7-1.41-1.1-.72-1.28-3.05-.26-3.36,1.35-6.77,2.18-9.95,1.49-5.7,1.87-11.57-1.36-16.73-2.14-3.44-8.22-3.2-9.14,1.19-2.71,12.9,3.12,25.6,13.46,33.46,11.75,8.93,27.32,9.54,41.44,8.22-.44-3.27-.89-6.55-1.33-9.82-6.69.9-14.08-2.44-20.15-4.96-5.28-2.19-10.86-4.99-14.51-9.53-6.88-8.56-1.73-23.46,10.06-23.61,6.43-.08,6.45-10.08,0-10h0Z"/>
    <path d="M163.59,342.96c69.62-11.96,137.4-33.64,201.15-64.05,18.31-8.73,36.26-18.21,53.84-28.34-2.45-1.88-4.9-3.76-7.34-5.65-2.57,14.69-.26,29.41,7.15,42.4,3.19,5.59,11.83.56,8.63-5.05-6.01-10.53-8.24-22.72-6.14-34.69.73-4.15-3.31-7.97-7.34-5.65-60.86,35.07-126.32,61.82-194.43,79.07-19.22,4.87-38.63,8.95-58.17,12.31-6.33,1.09-3.65,10.73,2.66,9.64h0Z"/>
    <path d="M120.56,310.8c-2.9-7.87,3.85-13.94,10.82-16,8.63-2.55,18.46-2.36,27.38-3,19.48-1.39,38.98-2.37,58.5-2.95,39.36-1.17,78.77-.66,118.09,1.44,6.43.34,6.41-9.66,0-10-34.37-1.84-68.79-2.47-103.21-1.81-16.87.32-33.74.95-50.59,1.88-16.13.89-32.96.98-48.88,3.9-13.28,2.43-27.26,14.31-21.76,29.2,2.21,5.99,11.88,3.4,9.64-2.66h0Z"/>
    <path d="M346.85,284.88c16.96.74,33.63,4.17,49.49,10.24,10.87,4.16,24.67,9.98,33.04-1.65,3.77-5.23-4.9-10.23-8.63-5.05-2.93,4.07-10.06,1.47-13.81.17-6.16-2.14-12.09-4.78-18.34-6.69-13.54-4.14-27.6-6.41-41.75-7.03-6.43-.28-6.42,9.72,0,10h0Z"/>
    <path d="M148.93,310.92c6.43,0,6.45-10,0-10s-6.45,10,0,10h0Z"/>
  </g>
</svg>