<?xml version="1.0" encoding="UTF-8"?>
<svg id="Layer_1" data-name="Layer 1" xmlns="http://www.w3.org/2000/svg" viewBox="0 0 329.04 111.6">
  <defs>
    <style>
      .cls-1 {
        fill: #fff;
      }
    </style>
  </defs>
  <path d="M0,80.16c.21-1.29.36-2.59.64-3.86,2.23-10.22,8.45-17.34,17.41-22.29,5.97-3.3,12.46-5.19,19.15-6.17,7.1-1.04,14.26-1.7,21.41-2.46,6.31-.67,12.63-1.29,18.96-1.84,5.65-.49,11.31-.9,16.96-1.28,7.33-.49,14.67-.96,22-1.35,5.14-.28,10.29-.47,15.44-.63,8.54-.27,17.09-.51,25.64-.72,5.23-.13,10.47-.21,15.7-.24,12.63-.08,25.27-.16,37.9-.15,9.71.01,19.43.17,29.14.27,2.84.03,5.67.15,8.51.15.72,0,1.53-.17,2.14-.52,18.25-10.47,36.48-20.97,54.7-31.48,3.63-2.1,7.2-4.3,10.82-6.42.78-.46,1.63-.78,2.45-1.16.4,0,.8,0,1.2,0,3.14.9,4.57,2.96,4.6,6.25.02,3.35.33,6.7.52,10.04.37,6.69.74,13.39,1.1,20.08.28,5.26.53,10.53.82,15.79.03.62.1,1.29.36,1.83.4.84.98,1.6,1.49,2.4v1.44c-.47.82-.85,1.71-1.41,2.46-4.3,5.66-10.17,7.05-16.87,6.06-4.53-.67-8.82-2.16-13.05-3.84-14.59-5.82-29.68-9.47-45.32-10.86-.98-.09-2.06-.21-2.95.11-1.98.71-3.9,1.63-5.79,2.57-8.06,4.04-16.06,8.21-24.17,12.16-20.27,9.88-41,18.68-62.37,25.91-23.6,7.99-47.67,14.02-72.47,16.8-7.58.85-15.2,1.29-22.8,1.9-2.37.19-4.75.33-7.13.49h-12c-.62-.08-1.25-.21-1.87-.24-6.8-.35-13.53-1.27-19.93-3.66-5.29-1.98-10.59-3.99-14.29-8.73-2.32-2.96-4.38-6.01-5.39-9.64C.69,87.35.41,85.3,0,83.28c0-1.04,0-2.08,0-3.12ZM213.82,55.9c-.03-.08-.05-.16-.08-.24-6.19-.21-12.37-.49-18.56-.62-10.19-.22-20.38-.46-30.57-.47-12.55-.01-25.1.18-37.65.33-4.67.05-9.35.16-14.02.34-8.98.34-17.96.72-26.93,1.14-6.18.29-12.36.67-18.54,1.03-7.45.44-14.91.84-22.36,1.4-3.29.24-6.63.51-9.8,1.33-3.61.93-6.81,2.92-9.66,5.38-.18.15-.31.36-.43.57-2.62,4.42-3.22,9.06-1.36,13.89,1.52,3.95,4.61,6.56,8.05,8.77,4.9,3.14,10.34,5.16,15.76,7.18,4.05,1.51,8.21,2.63,12.63,2.02,1.5-.21,3.02-.39,4.4.57.17.12.53,0,.8-.06,3.88-.72,7.76-1.44,11.64-2.18,15.78-3.02,31.44-6.63,46.98-10.71,27.79-7.29,55.06-16.18,81.86-26.55,2.62-1.02,5.23-2.07,7.84-3.11ZM274.98,39.74c-.03.08-.05.16-.08.25,2.11.05,4.21.11,6.32.16,1.36.04,2.57.42,3.59,1.39.38.35.94.59,1.45.71,5.02,1.11,10.05,2.17,15.07,3.25,4.23.91,8.47,1.82,12.86,2.76-3.74-8.49-5.55-17.23-5.38-26.39-11.37,6.01-22.6,11.95-33.82,17.88Z"/>
  <path class="cls-1" d="M0,83.28c.41,2.02.69,4.07,1.24,6.05,1.01,3.63,3.07,6.68,5.39,9.64,3.7,4.74,9,6.75,14.29,8.73,6.4,2.39,13.12,3.31,19.93,3.66.63.03,1.25.16,1.87.24H0C0,102.16,0,92.72,0,83.28Z"/>
  <path class="cls-1" d="M329.04,56.4c-.5-.8-1.09-1.55-1.49-2.4-.26-.55-.32-1.21-.36-1.83-.29-5.26-.54-10.52-.82-15.79-.36-6.7-.74-13.39-1.1-20.08-.18-3.35-.49-6.7-.52-10.04-.02-3.29-1.45-5.35-4.6-6.25h8.88v56.4Z"/>
  <path d="M52.38,72.25c-.01,2.98-2.03,5.04-4.91,5.01-2.84-.03-4.85-2.18-4.81-5.12.04-2.99,2.05-5.03,4.93-4.99,2.9.04,4.8,2.06,4.79,5.1Z"/>
</svg>